<svg width="147" height="148" viewBox="0 0 147 148" fill="none" xmlns="http://www.w3.org/2000/svg">
<path d="M12.4842 117.619C15.3956 117.619 17.6337 118.411 19.1986 119.994C20.7817 121.559 21.5732 123.806 21.5732 126.736C21.5732 128.756 21.2002 130.521 20.4542 132.031C19.7081 133.523 18.6436 134.678 17.2607 135.497C15.8778 136.316 14.2583 136.726 12.4023 136.726H6.23373C5.63325 136.726 5.33301 136.48 5.33301 135.989V135.306C5.33301 134.815 5.63325 134.569 6.23373 134.569H6.94339V119.776H6.23373C5.63325 119.776 5.33301 119.53 5.33301 119.039V118.356C5.33301 117.865 5.63325 117.619 6.23373 117.619H12.4842ZM12.1566 134.569C14.3766 134.569 16.078 133.896 17.2607 132.55C18.4617 131.203 19.0622 129.292 19.0622 126.818C19.0622 124.434 18.5072 122.669 17.3972 121.523C16.2872 120.358 14.595 119.776 12.3204 119.776H9.3999V134.569H12.1566ZM43.8637 117.619C44.4642 117.619 44.7644 117.865 44.7644 118.356V119.039C44.7644 119.53 44.4642 119.776 43.8637 119.776H43.154L37.3403 129.411V134.569H38.05C38.6504 134.569 38.9507 134.815 38.9507 135.306V135.989C38.9507 136.48 38.6504 136.726 38.05 136.726H34.1741C33.5737 136.726 33.2734 136.48 33.2734 135.989V135.306C33.2734 134.815 33.5737 134.569 34.1741 134.569H34.8838V129.411L29.0701 119.776H28.3604C27.7599 119.776 27.4597 119.53 27.4597 119.039V118.356C27.4597 117.865 27.7599 117.619 28.3604 117.619H32.5638C33.146 117.619 33.4372 117.865 33.4372 118.356V119.039C33.4372 119.53 33.146 119.776 32.5638 119.776H31.8541L36.2485 127.118L40.6429 119.776H39.906C39.3237 119.776 39.0326 119.53 39.0326 119.039V118.356C39.0326 117.865 39.3237 117.619 39.906 117.619H43.8637ZM68.095 117.619C68.6773 117.619 68.9685 117.865 68.9685 118.356V119.039C68.9685 119.53 68.6773 119.776 68.095 119.776H67.3854V135.716C67.3854 136.007 67.2944 136.252 67.1124 136.453C66.9305 136.635 66.6939 136.726 66.4028 136.726H65.4748C65.2018 136.726 64.9653 136.598 64.7651 136.343L55.5396 121.85V134.569H56.2492C56.8497 134.569 57.1499 134.815 57.1499 135.306V135.989C57.1499 136.48 56.8497 136.726 56.2492 136.726H52.5918C51.9913 136.726 51.691 136.48 51.691 135.989V135.306C51.691 134.815 51.9913 134.569 52.5918 134.569H53.3014V119.776H52.5918C51.9913 119.776 51.691 119.53 51.691 119.039V118.356C51.691 117.865 51.9913 117.619 52.5918 117.619H55.1847C55.4759 117.619 55.7215 117.747 55.9217 118.002L65.1472 132.495V119.776H64.4103C63.828 119.776 63.5368 119.53 63.5368 119.039V118.356C63.5368 117.865 63.828 117.619 64.4103 117.619H68.095ZM84.7453 136.999C83.0349 136.999 81.5519 136.616 80.2963 135.852C79.059 135.07 78.1037 133.96 77.4304 132.522C76.7571 131.067 76.4205 129.365 76.4205 127.418C76.4205 125.398 76.7753 123.633 77.485 122.123C78.1946 120.595 79.2045 119.421 80.5147 118.602C81.8248 117.765 83.3533 117.346 85.1001 117.346C86.7924 117.346 88.2663 117.738 89.5219 118.52C90.7774 119.284 91.7418 120.385 92.4151 121.823C93.0883 123.26 93.425 124.953 93.425 126.9C93.425 128.938 93.0701 130.721 92.3605 132.249C91.6508 133.76 90.6409 134.933 89.3308 135.77C88.0207 136.589 86.4922 136.999 84.7453 136.999ZM84.7726 134.842C86.7196 134.842 88.2299 134.151 89.3035 132.768C90.3771 131.385 90.9139 129.438 90.9139 126.927C90.9139 124.525 90.4135 122.687 89.4127 121.413C88.4119 120.14 86.9653 119.503 85.0729 119.503C83.1258 119.503 81.6155 120.194 80.542 121.577C79.4684 122.942 78.9316 124.88 78.9316 127.391C78.9316 129.811 79.432 131.658 80.4328 132.932C81.4336 134.205 82.8802 134.842 84.7726 134.842ZM115.008 131.458C115.317 131.458 115.581 131.549 115.799 131.731C116.018 131.913 116.127 132.14 116.127 132.413C116.127 132.795 115.99 133.195 115.718 133.614C115.026 134.742 114.162 135.588 113.125 136.152C112.087 136.716 110.85 136.999 109.413 136.999C107.738 136.999 106.292 136.598 105.073 135.798C103.872 134.979 102.944 133.832 102.289 132.358C101.652 130.866 101.333 129.12 101.333 127.118C101.333 124.043 102.043 121.65 103.462 119.939C104.9 118.211 106.901 117.346 109.467 117.346C110.668 117.346 111.778 117.565 112.797 118.002C113.816 118.438 114.626 119.03 115.226 119.776C115.827 120.504 116.127 121.313 116.127 122.205C116.127 122.787 115.972 123.251 115.663 123.597C115.372 123.943 114.962 124.116 114.435 124.116C113.98 124.116 113.598 123.97 113.288 123.679C112.997 123.388 112.852 123.024 112.852 122.587C112.852 122.059 113.043 121.632 113.425 121.304C113.097 120.74 112.579 120.303 111.869 119.994C111.159 119.667 110.368 119.503 109.494 119.503C105.71 119.503 103.817 122.032 103.817 127.091C103.817 129.584 104.29 131.503 105.236 132.85C106.201 134.178 107.62 134.842 109.494 134.842C110.513 134.842 111.387 134.633 112.115 134.214C112.861 133.796 113.479 133.15 113.971 132.277C114.134 131.949 114.289 131.731 114.435 131.622C114.58 131.512 114.771 131.458 115.008 131.458ZM140.086 117.619C140.686 117.619 140.986 117.865 140.986 118.356V119.039C140.986 119.53 140.686 119.776 140.086 119.776H139.376L133.317 136.125C133.171 136.525 132.88 136.726 132.443 136.726H131.624C131.188 136.726 130.896 136.525 130.751 136.125L124.691 119.776H123.982C123.4 119.776 123.108 119.53 123.108 119.039V118.356C123.108 117.865 123.4 117.619 123.982 117.619H127.94C128.54 117.619 128.84 117.865 128.84 118.356V119.039C128.84 119.53 128.54 119.776 127.94 119.776H127.23L132.143 133.232L137.056 119.776H136.346C135.764 119.776 135.473 119.53 135.473 119.039V118.356C135.473 117.865 135.764 117.619 136.346 117.619H140.086Z" fill="url(#paint0_linear_35_2)"/>
<path d="M52.4134 53.3149L2 100.898V5L52.4134 53.3149ZM52.4134 53.3149L71.4098 70.8839L90.0409 53.3149M52.4134 53.3149L71.4098 35.7458L90.0409 53.3149M90.0409 53.3149L144.107 100.898V5L90.0409 53.3149Z" stroke="url(#paint1_linear_35_2)" stroke-width="3.97503"/>
<defs>
<linearGradient id="paint0_linear_35_2" x1="72.8899" y1="110.726" x2="72.8899" y2="147.118" gradientUnits="userSpaceOnUse">
<stop stop-color="#87F5F9"/>
<stop offset="1" stop-color="#635AD9"/>
</linearGradient>
<linearGradient id="paint1_linear_35_2" x1="71.0445" y1="5" x2="71.0445" y2="100.898" gradientUnits="userSpaceOnUse">
<stop stop-color="#87F5F9"/>
<stop offset="0.307292" stop-color="#7ECDF1"/>
<stop offset="1" stop-color="#635AD9"/>
</linearGradient>
</defs>
</svg>
